<?xml version="1.0" encoding="UTF-8" standalone="no"?>
<!DOCTYPE svg PUBLIC "-//W3C//DTD SVG 1.1//EN"
 "http://www.w3.org/Graphics/SVG/1.1/DTD/svg11.dtd">
<!-- Generated by graphviz version 2.26.3 (20100126.1600)
 -->
<!-- Title: controllers_diagram Pages: 1 -->
<svg width="1768pt" height="1999pt"
 viewBox="0.00 0.00 1768.00 1999.25" xmlns="http://www.w3.org/2000/svg" xmlns:xlink="http://www.w3.org/1999/xlink">
<g id="graph1" class="graph" transform="scale(1 1) rotate(0) translate(4 1995.25)">
<title>controllers_diagram</title>
<polygon fill="white" stroke="white" points="-4,5 -4,-1995.25 1765,-1995.25 1765,5 -4,5"/>
<!-- _diagram_info -->
<g id="node1" class="node"><title>_diagram_info</title>
<text text-anchor="start" x="1557" y="-207.3" font-family="Times Roman,serif" font-size="13.00">Controllers diagram</text>
<text text-anchor="start" x="1557" y="-190.3" font-family="Times Roman,serif" font-size="13.00">Date: Nov 19 2012 &#45; 20:47</text>
<text text-anchor="start" x="1557" y="-173.3" font-family="Times Roman,serif" font-size="13.00">Migration version: 18</text>
<text text-anchor="start" x="1557" y="-156.3" font-family="Times Roman,serif" font-size="13.00">Generated by RailRoady 1.1.0</text>
<text text-anchor="start" x="1557" y="-139.3" font-family="Times Roman,serif" font-size="13.00">http://railroady.prestonlee.com</text>
</g>
<!-- ApplicationController -->
<g id="node2" class="node"><title>ApplicationController</title>
<polyline fill="none" stroke="black" points="589.403,-837.655 803.403,-837.655 "/>
<path fill="none" stroke="black" d="M803.403,-837.655C809.403,-837.655 815.403,-843.655 815.403,-849.655"/>
<polyline fill="none" stroke="black" points="815.403,-849.655 815.403,-1035.65 "/>
<path fill="none" stroke="black" d="M815.403,-1035.65C815.403,-1041.65 809.403,-1047.65 803.403,-1047.65"/>
<polyline fill="none" stroke="black" points="803.403,-1047.65 589.403,-1047.65 "/>
<path fill="none" stroke="black" d="M589.403,-1047.65C583.403,-1047.65 577.403,-1041.65 577.403,-1035.65"/>
<polyline fill="none" stroke="black" points="577.403,-1035.65 577.403,-849.655 "/>
<path fill="none" stroke="black" d="M577.403,-849.655C577.403,-843.655 583.403,-837.655 589.403,-837.655"/>
<text text-anchor="middle" x="696.403" y="-1031.05" font-family="Times Roman,serif" font-size="14.00">ApplicationController</text>
<polyline fill="none" stroke="black" points="577.403,-1021.65 815.403,-1021.65 "/>
<text text-anchor="start" x="585.403" y="-1005.05" font-family="Times Roman,serif" font-size="14.00">_one_time_conditions_valid_44?</text>
<text text-anchor="start" x="585.403" y="-987.055" font-family="Times Roman,serif" font-size="14.00">index</text>
<text text-anchor="start" x="585.403" y="-969.055" font-family="Times Roman,serif" font-size="14.00">new_event</text>
<polyline fill="none" stroke="black" points="577.403,-959.655 815.403,-959.655 "/>
<polyline fill="none" stroke="black" points="577.403,-935.655 815.403,-935.655 "/>
<text text-anchor="start" x="585.403" y="-919.055" font-family="Times Roman,serif" font-size="14.00">_layout</text>
<text text-anchor="start" x="585.403" y="-901.055" font-family="Times Roman,serif" font-size="14.00">_run_process_action_callbacks</text>
<text text-anchor="start" x="585.403" y="-883.055" font-family="Times Roman,serif" font-size="14.00">get_controller_name</text>
<text text-anchor="start" x="585.403" y="-865.055" font-family="Times Roman,serif" font-size="14.00">show_alert</text>
<text text-anchor="start" x="585.403" y="-847.055" font-family="Times Roman,serif" font-size="14.00">show_notice</text>
</g>
<!-- MattersController -->
<g id="node3" class="node"><title>MattersController</title>
<polyline fill="none" stroke="black" points="1161.85,-1573.7 1375.85,-1573.7 "/>
<path fill="none" stroke="black" d="M1375.85,-1573.7C1381.85,-1573.7 1387.85,-1579.7 1387.85,-1585.7"/>
<polyline fill="none" stroke="black" points="1387.85,-1585.7 1387.85,-1861.7 "/>
<path fill="none" stroke="black" d="M1387.85,-1861.7C1387.85,-1867.7 1381.85,-1873.7 1375.85,-1873.7"/>
<polyline fill="none" stroke="black" points="1375.85,-1873.7 1161.85,-1873.7 "/>
<path fill="none" stroke="black" d="M1161.85,-1873.7C1155.85,-1873.7 1149.85,-1867.7 1149.85,-1861.7"/>
<polyline fill="none" stroke="black" points="1149.85,-1861.7 1149.85,-1585.7 "/>
<path fill="none" stroke="black" d="M1149.85,-1585.7C1149.85,-1579.7 1155.85,-1573.7 1161.85,-1573.7"/>
<text text-anchor="middle" x="1268.85" y="-1857.1" font-family="Times Roman,serif" font-size="14.00">MattersController</text>
<polyline fill="none" stroke="black" points="1149.85,-1847.7 1387.85,-1847.7 "/>
<text text-anchor="start" x="1157.85" y="-1831.1" font-family="Times Roman,serif" font-size="14.00">_callback_before_47</text>
<text text-anchor="start" x="1157.85" y="-1813.1" font-family="Times Roman,serif" font-size="14.00">_one_time_conditions_valid_46?</text>
<text text-anchor="start" x="1157.85" y="-1795.1" font-family="Times Roman,serif" font-size="14.00">_one_time_conditions_valid_48?</text>
<text text-anchor="start" x="1157.85" y="-1777.1" font-family="Times Roman,serif" font-size="14.00">ajax_get_matters_by_career</text>
<text text-anchor="start" x="1157.85" y="-1759.1" font-family="Times Roman,serif" font-size="14.00">create</text>
<text text-anchor="start" x="1157.85" y="-1741.1" font-family="Times Roman,serif" font-size="14.00">destroy</text>
<text text-anchor="start" x="1157.85" y="-1723.1" font-family="Times Roman,serif" font-size="14.00">edit</text>
<text text-anchor="start" x="1157.85" y="-1705.1" font-family="Times Roman,serif" font-size="14.00">index</text>
<text text-anchor="start" x="1157.85" y="-1687.1" font-family="Times Roman,serif" font-size="14.00">new</text>
<text text-anchor="start" x="1157.85" y="-1669.1" font-family="Times Roman,serif" font-size="14.00">show</text>
<text text-anchor="start" x="1157.85" y="-1651.1" font-family="Times Roman,serif" font-size="14.00">update</text>
<polyline fill="none" stroke="black" points="1149.85,-1641.7 1387.85,-1641.7 "/>
<polyline fill="none" stroke="black" points="1149.85,-1617.7 1387.85,-1617.7 "/>
<text text-anchor="start" x="1157.85" y="-1601.1" font-family="Times Roman,serif" font-size="14.00">_layout</text>
<text text-anchor="start" x="1157.85" y="-1583.1" font-family="Times Roman,serif" font-size="14.00">_run_process_action_callbacks</text>
</g>
<!-- ApplicationController&#45;&gt;MattersController -->
<g id="edge2" class="edge"><title>ApplicationController&#45;&gt;MattersController</title>
<path fill="none" stroke="black" d="M773.606,-1047.99C872.866,-1183.42 1045.87,-1419.47 1158.87,-1573.64"/>
</g>
<!-- AdministrationController -->
<g id="node4" class="node"><title>AdministrationController</title>
<polyline fill="none" stroke="black" points="581.689,-1.5 795.689,-1.5 "/>
<path fill="none" stroke="black" d="M795.689,-1.5C801.689,-1.5 807.689,-7.5 807.689,-13.5"/>
<polyline fill="none" stroke="black" points="807.689,-13.5 807.689,-181.5 "/>
<path fill="none" stroke="black" d="M807.689,-181.5C807.689,-187.5 801.689,-193.5 795.689,-193.5"/>
<polyline fill="none" stroke="black" points="795.689,-193.5 581.689,-193.5 "/>
<path fill="none" stroke="black" d="M581.689,-193.5C575.689,-193.5 569.689,-187.5 569.689,-181.5"/>
<polyline fill="none" stroke="black" points="569.689,-181.5 569.689,-13.5 "/>
<path fill="none" stroke="black" d="M569.689,-13.5C569.689,-7.5 575.689,-1.5 581.689,-1.5"/>
<text text-anchor="middle" x="688.689" y="-176.9" font-family="Times Roman,serif" font-size="14.00">AdministrationController</text>
<polyline fill="none" stroke="black" points="569.689,-167.5 807.689,-167.5 "/>
<text text-anchor="start" x="577.689" y="-150.9" font-family="Times Roman,serif" font-size="14.00">_one_time_conditions_valid_52?</text>
<text text-anchor="start" x="577.689" y="-132.9" font-family="Times Roman,serif" font-size="14.00">_one_time_conditions_valid_54?</text>
<text text-anchor="start" x="577.689" y="-114.9" font-family="Times Roman,serif" font-size="14.00">index</text>
<text text-anchor="start" x="577.689" y="-96.9" font-family="Times Roman,serif" font-size="14.00">statics</text>
<polyline fill="none" stroke="black" points="569.689,-87.5 807.689,-87.5 "/>
<polyline fill="none" stroke="black" points="569.689,-63.5 807.689,-63.5 "/>
<text text-anchor="start" x="577.689" y="-46.9" font-family="Times Roman,serif" font-size="14.00">_layout</text>
<text text-anchor="start" x="577.689" y="-28.9" font-family="Times Roman,serif" font-size="14.00">_run_process_action_callbacks</text>
<text text-anchor="start" x="577.689" y="-10.9" font-family="Times Roman,serif" font-size="14.00">check_role</text>
</g>
<!-- ApplicationController&#45;&gt;AdministrationController -->
<g id="edge4" class="edge"><title>ApplicationController&#45;&gt;AdministrationController</title>
<path fill="none" stroke="black" d="M639.977,-837.424C621.814,-798.044 604.037,-752.18 594.929,-708.208 568.932,-582.694 576.847,-546.704 594.929,-419.808 606.007,-342.067 631.4,-256.867 652.969,-193.6"/>
</g>
<!-- ImporterController -->
<g id="node5" class="node"><title>ImporterController</title>
<polyline fill="none" stroke="black" points="567.878,-1107.81 781.878,-1107.81 "/>
<path fill="none" stroke="black" d="M781.878,-1107.81C787.878,-1107.81 793.878,-1113.81 793.878,-1119.81"/>
<polyline fill="none" stroke="black" points="793.878,-1119.81 793.878,-1521.81 "/>
<path fill="none" stroke="black" d="M793.878,-1521.81C793.878,-1527.81 787.878,-1533.81 781.878,-1533.81"/>
<polyline fill="none" stroke="black" points="781.878,-1533.81 567.878,-1533.81 "/>
<path fill="none" stroke="black" d="M567.878,-1533.81C561.878,-1533.81 555.878,-1527.81 555.878,-1521.81"/>
<polyline fill="none" stroke="black" points="555.878,-1521.81 555.878,-1119.81 "/>
<path fill="none" stroke="black" d="M555.878,-1119.81C555.878,-1113.81 561.878,-1107.81 567.878,-1107.81"/>
<text text-anchor="middle" x="674.878" y="-1517.21" font-family="Times Roman,serif" font-size="14.00">ImporterController</text>
<polyline fill="none" stroke="black" points="555.878,-1507.81 793.878,-1507.81 "/>
<text text-anchor="start" x="563.878" y="-1491.21" font-family="Times Roman,serif" font-size="14.00">_one_time_conditions_valid_56?</text>
<text text-anchor="start" x="563.878" y="-1473.21" font-family="Times Roman,serif" font-size="14.00">career_template</text>
<text text-anchor="start" x="563.878" y="-1455.21" font-family="Times Roman,serif" font-size="14.00">careers</text>
<text text-anchor="start" x="563.878" y="-1437.21" font-family="Times Roman,serif" font-size="14.00">index</text>
<text text-anchor="start" x="563.878" y="-1419.21" font-family="Times Roman,serif" font-size="14.00">matter_template</text>
<text text-anchor="start" x="563.878" y="-1401.21" font-family="Times Roman,serif" font-size="14.00">matters</text>
<text text-anchor="start" x="563.878" y="-1383.21" font-family="Times Roman,serif" font-size="14.00">plan_template</text>
<text text-anchor="start" x="563.878" y="-1365.21" font-family="Times Roman,serif" font-size="14.00">plans</text>
<text text-anchor="start" x="563.878" y="-1347.21" font-family="Times Roman,serif" font-size="14.00">result</text>
<text text-anchor="start" x="563.878" y="-1329.21" font-family="Times Roman,serif" font-size="14.00">space_template</text>
<text text-anchor="start" x="563.878" y="-1311.21" font-family="Times Roman,serif" font-size="14.00">space_type_template</text>
<text text-anchor="start" x="563.878" y="-1293.21" font-family="Times Roman,serif" font-size="14.00">space_types</text>
<text text-anchor="start" x="563.878" y="-1275.21" font-family="Times Roman,serif" font-size="14.00">spaces</text>
<text text-anchor="start" x="563.878" y="-1257.21" font-family="Times Roman,serif" font-size="14.00">upload_careers</text>
<text text-anchor="start" x="563.878" y="-1239.21" font-family="Times Roman,serif" font-size="14.00">upload_matters</text>
<text text-anchor="start" x="563.878" y="-1221.21" font-family="Times Roman,serif" font-size="14.00">upload_plans</text>
<text text-anchor="start" x="563.878" y="-1203.21" font-family="Times Roman,serif" font-size="14.00">upload_space_types</text>
<text text-anchor="start" x="563.878" y="-1185.21" font-family="Times Roman,serif" font-size="14.00">upload_spaces</text>
<polyline fill="none" stroke="black" points="555.878,-1175.81 793.878,-1175.81 "/>
<polyline fill="none" stroke="black" points="555.878,-1151.81 793.878,-1151.81 "/>
<text text-anchor="start" x="563.878" y="-1135.21" font-family="Times Roman,serif" font-size="14.00">_layout</text>
<text text-anchor="start" x="563.878" y="-1117.21" font-family="Times Roman,serif" font-size="14.00">_run_process_action_callbacks</text>
</g>
<!-- ApplicationController&#45;&gt;ImporterController -->
<g id="edge6" class="edge"><title>ApplicationController&#45;&gt;ImporterController</title>
<path fill="none" stroke="black" d="M690.422,-1047.74C689.345,-1066.65 688.189,-1086.96 687.011,-1107.66"/>
</g>
<!-- EventsController -->
<g id="node6" class="node"><title>EventsController</title>
<polyline fill="none" stroke="black" points="600.32,-1581.75 814.32,-1581.75 "/>
<path fill="none" stroke="black" d="M814.32,-1581.75C820.32,-1581.75 826.32,-1587.75 826.32,-1593.75"/>
<polyline fill="none" stroke="black" points="826.32,-1593.75 826.32,-1977.75 "/>
<path fill="none" stroke="black" d="M826.32,-1977.75C826.32,-1983.75 820.32,-1989.75 814.32,-1989.75"/>
<polyline fill="none" stroke="black" points="814.32,-1989.75 600.32,-1989.75 "/>
<path fill="none" stroke="black" d="M600.32,-1989.75C594.32,-1989.75 588.32,-1983.75 588.32,-1977.75"/>
<polyline fill="none" stroke="black" points="588.32,-1977.75 588.32,-1593.75 "/>
<path fill="none" stroke="black" d="M588.32,-1593.75C588.32,-1587.75 594.32,-1581.75 600.32,-1581.75"/>
<text text-anchor="middle" x="707.32" y="-1973.15" font-family="Times Roman,serif" font-size="14.00">EventsController</text>
<polyline fill="none" stroke="black" points="588.32,-1963.75 826.32,-1963.75 "/>
<text text-anchor="start" x="596.32" y="-1947.15" font-family="Times Roman,serif" font-size="14.00">_callback_before_59</text>
<text text-anchor="start" x="596.32" y="-1929.15" font-family="Times Roman,serif" font-size="14.00">_one_time_conditions_valid_58?</text>
<text text-anchor="start" x="596.32" y="-1911.15" font-family="Times Roman,serif" font-size="14.00">_one_time_conditions_valid_60?</text>
<text text-anchor="start" x="596.32" y="-1893.15" font-family="Times Roman,serif" font-size="14.00">calendar_preview</text>
<text text-anchor="start" x="596.32" y="-1875.15" font-family="Times Roman,serif" font-size="14.00">create</text>
<text text-anchor="start" x="596.32" y="-1857.15" font-family="Times Roman,serif" font-size="14.00">destroy</text>
<text text-anchor="start" x="596.32" y="-1839.15" font-family="Times Roman,serif" font-size="14.00">edit</text>
<text text-anchor="start" x="596.32" y="-1821.15" font-family="Times Roman,serif" font-size="14.00">generate_calendar</text>
<text text-anchor="start" x="596.32" y="-1803.15" font-family="Times Roman,serif" font-size="14.00">get_responsibles_list</text>
<text text-anchor="start" x="596.32" y="-1785.15" font-family="Times Roman,serif" font-size="14.00">index</text>
<text text-anchor="start" x="596.32" y="-1767.15" font-family="Times Roman,serif" font-size="14.00">new</text>
<text text-anchor="start" x="596.32" y="-1749.15" font-family="Times Roman,serif" font-size="14.00">search</text>
<text text-anchor="start" x="596.32" y="-1731.15" font-family="Times Roman,serif" font-size="14.00">show</text>
<text text-anchor="start" x="596.32" y="-1713.15" font-family="Times Roman,serif" font-size="14.00">tip_summary</text>
<text text-anchor="start" x="596.32" y="-1695.15" font-family="Times Roman,serif" font-size="14.00">update</text>
<polyline fill="none" stroke="black" points="588.32,-1685.75 826.32,-1685.75 "/>
<polyline fill="none" stroke="black" points="588.32,-1661.75 826.32,-1661.75 "/>
<text text-anchor="start" x="596.32" y="-1645.15" font-family="Times Roman,serif" font-size="14.00">_layout</text>
<text text-anchor="start" x="596.32" y="-1627.15" font-family="Times Roman,serif" font-size="14.00">_run_process_action_callbacks</text>
<text text-anchor="start" x="596.32" y="-1609.15" font-family="Times Roman,serif" font-size="14.00">clean_params</text>
<text text-anchor="start" x="596.32" y="-1591.15" font-family="Times Roman,serif" font-size="14.00">parse_byday</text>
</g>
<!-- ApplicationController&#45;&gt;EventsController -->
<g id="edge8" class="edge"><title>ApplicationController&#45;&gt;EventsController</title>
<path fill="none" stroke="black" d="M773.247,-1048.05C783.057,-1066.15 791.579,-1085.35 797.078,-1104.61 849.832,-1289.41 830.189,-1347.71 797.078,-1537.01 794.507,-1551.71 791.142,-1566.68 787.227,-1581.63"/>
</g>
<!-- StaticsController -->
<g id="node7" class="node"><title>StaticsController</title>
<polyline fill="none" stroke="black" points="77.8982,-1665.79 185.898,-1665.79 "/>
<path fill="none" stroke="black" d="M185.898,-1665.79C191.898,-1665.79 197.898,-1671.79 197.898,-1677.79"/>
<polyline fill="none" stroke="black" points="197.898,-1677.79 197.898,-1773.79 "/>
<path fill="none" stroke="black" d="M197.898,-1773.79C197.898,-1779.79 191.898,-1785.79 185.898,-1785.79"/>
<polyline fill="none" stroke="black" points="185.898,-1785.79 77.8982,-1785.79 "/>
<path fill="none" stroke="black" d="M77.8982,-1785.79C71.8982,-1785.79 65.8982,-1779.79 65.8982,-1773.79"/>
<polyline fill="none" stroke="black" points="65.8982,-1773.79 65.8982,-1677.79 "/>
<path fill="none" stroke="black" d="M65.8982,-1677.79C65.8982,-1671.79 71.8982,-1665.79 77.8982,-1665.79"/>
<text text-anchor="middle" x="131.898" y="-1769.19" font-family="Times Roman,serif" font-size="14.00">StaticsController</text>
<polyline fill="none" stroke="black" points="65.8982,-1759.79 197.898,-1759.79 "/>
<text text-anchor="start" x="73.8982" y="-1743.19" font-family="Times Roman,serif" font-size="14.00">index</text>
<text text-anchor="start" x="73.8982" y="-1725.19" font-family="Times Roman,serif" font-size="14.00">view_doc</text>
<polyline fill="none" stroke="black" points="65.8982,-1715.79 197.898,-1715.79 "/>
<polyline fill="none" stroke="black" points="65.8982,-1691.79 197.898,-1691.79 "/>
<text text-anchor="start" x="73.8982" y="-1675.19" font-family="Times Roman,serif" font-size="14.00">_layout</text>
</g>
<!-- ApplicationController&#45;&gt;StaticsController -->
<g id="edge10" class="edge"><title>ApplicationController&#45;&gt;StaticsController</title>
<path fill="none" stroke="black" d="M599.666,-1047.69C583.549,-1066.3 567.325,-1085.76 552.678,-1104.61 399.221,-1302.09 239.261,-1552.77 168.872,-1665.76"/>
</g>
<!-- SpacesController -->
<g id="node8" class="node"><title>SpacesController</title>
<polyline fill="none" stroke="black" points="31.9207,-551.235 245.921,-551.235 "/>
<path fill="none" stroke="black" d="M245.921,-551.235C251.921,-551.235 257.921,-557.235 257.921,-563.235"/>
<polyline fill="none" stroke="black" points="257.921,-563.235 257.921,-839.235 "/>
<path fill="none" stroke="black" d="M257.921,-839.235C257.921,-845.235 251.921,-851.235 245.921,-851.235"/>
<polyline fill="none" stroke="black" points="245.921,-851.235 31.9207,-851.235 "/>
<path fill="none" stroke="black" d="M31.9207,-851.235C25.9207,-851.235 19.9207,-845.235 19.9207,-839.235"/>
<polyline fill="none" stroke="black" points="19.9207,-839.235 19.9207,-563.235 "/>
<path fill="none" stroke="black" d="M19.9207,-563.235C19.9207,-557.235 25.9207,-551.235 31.9207,-551.235"/>
<text text-anchor="middle" x="138.921" y="-834.635" font-family="Times Roman,serif" font-size="14.00">SpacesController</text>
<polyline fill="none" stroke="black" points="19.9207,-825.235 257.921,-825.235 "/>
<text text-anchor="start" x="27.9207" y="-808.635" font-family="Times Roman,serif" font-size="14.00">_callback_before_65</text>
<text text-anchor="start" x="27.9207" y="-790.635" font-family="Times Roman,serif" font-size="14.00">_one_time_conditions_valid_64?</text>
<text text-anchor="start" x="27.9207" y="-772.635" font-family="Times Roman,serif" font-size="14.00">_one_time_conditions_valid_66?</text>
<text text-anchor="start" x="27.9207" y="-754.635" font-family="Times Roman,serif" font-size="14.00">ajax_free_spaces</text>
<text text-anchor="start" x="27.9207" y="-736.635" font-family="Times Roman,serif" font-size="14.00">create</text>
<text text-anchor="start" x="27.9207" y="-718.635" font-family="Times Roman,serif" font-size="14.00">destroy</text>
<text text-anchor="start" x="27.9207" y="-700.635" font-family="Times Roman,serif" font-size="14.00">edit</text>
<text text-anchor="start" x="27.9207" y="-682.635" font-family="Times Roman,serif" font-size="14.00">index</text>
<text text-anchor="start" x="27.9207" y="-664.635" font-family="Times Roman,serif" font-size="14.00">new</text>
<text text-anchor="start" x="27.9207" y="-646.635" font-family="Times Roman,serif" font-size="14.00">show</text>
<text text-anchor="start" x="27.9207" y="-628.635" font-family="Times Roman,serif" font-size="14.00">update</text>
<polyline fill="none" stroke="black" points="19.9207,-619.235 257.921,-619.235 "/>
<polyline fill="none" stroke="black" points="19.9207,-595.235 257.921,-595.235 "/>
<text text-anchor="start" x="27.9207" y="-578.635" font-family="Times Roman,serif" font-size="14.00">_layout</text>
<text text-anchor="start" x="27.9207" y="-560.635" font-family="Times Roman,serif" font-size="14.00">_run_process_action_callbacks</text>
</g>
<!-- ApplicationController&#45;&gt;SpacesController -->
<g id="edge12" class="edge"><title>ApplicationController&#45;&gt;SpacesController</title>
<path fill="none" stroke="black" d="M577.151,-891.012C482.953,-850.22 352.131,-793.567 257.983,-752.796"/>
</g>
<!-- CareersController -->
<g id="node9" class="node"><title>CareersController</title>
<polyline fill="none" stroke="black" points="1166.07,-564.334 1380.07,-564.334 "/>
<path fill="none" stroke="black" d="M1380.07,-564.334C1386.07,-564.334 1392.07,-570.334 1392.07,-576.334"/>
<polyline fill="none" stroke="black" points="1392.07,-576.334 1392.07,-852.334 "/>
<path fill="none" stroke="black" d="M1392.07,-852.334C1392.07,-858.334 1386.07,-864.334 1380.07,-864.334"/>
<polyline fill="none" stroke="black" points="1380.07,-864.334 1166.07,-864.334 "/>
<path fill="none" stroke="black" d="M1166.07,-864.334C1160.07,-864.334 1154.07,-858.334 1154.07,-852.334"/>
<polyline fill="none" stroke="black" points="1154.07,-852.334 1154.07,-576.334 "/>
<path fill="none" stroke="black" d="M1154.07,-576.334C1154.07,-570.334 1160.07,-564.334 1166.07,-564.334"/>
<text text-anchor="middle" x="1273.07" y="-847.734" font-family="Times Roman,serif" font-size="14.00">CareersController</text>
<polyline fill="none" stroke="black" points="1154.07,-838.334 1392.07,-838.334 "/>
<text text-anchor="start" x="1162.07" y="-821.734" font-family="Times Roman,serif" font-size="14.00">_callback_before_71</text>
<text text-anchor="start" x="1162.07" y="-803.734" font-family="Times Roman,serif" font-size="14.00">_one_time_conditions_valid_70?</text>
<text text-anchor="start" x="1162.07" y="-785.734" font-family="Times Roman,serif" font-size="14.00">_one_time_conditions_valid_72?</text>
<text text-anchor="start" x="1162.07" y="-767.734" font-family="Times Roman,serif" font-size="14.00">ajax_careers_by_plan</text>
<text text-anchor="start" x="1162.07" y="-749.734" font-family="Times Roman,serif" font-size="14.00">create</text>
<text text-anchor="start" x="1162.07" y="-731.734" font-family="Times Roman,serif" font-size="14.00">destroy</text>
<text text-anchor="start" x="1162.07" y="-713.734" font-family="Times Roman,serif" font-size="14.00">edit</text>
<text text-anchor="start" x="1162.07" y="-695.734" font-family="Times Roman,serif" font-size="14.00">index</text>
<text text-anchor="start" x="1162.07" y="-677.734" font-family="Times Roman,serif" font-size="14.00">new</text>
<text text-anchor="start" x="1162.07" y="-659.734" font-family="Times Roman,serif" font-size="14.00">show</text>
<text text-anchor="start" x="1162.07" y="-641.734" font-family="Times Roman,serif" font-size="14.00">update</text>
<polyline fill="none" stroke="black" points="1154.07,-632.334 1392.07,-632.334 "/>
<polyline fill="none" stroke="black" points="1154.07,-608.334 1392.07,-608.334 "/>
<text text-anchor="start" x="1162.07" y="-591.734" font-family="Times Roman,serif" font-size="14.00">_layout</text>
<text text-anchor="start" x="1162.07" y="-573.734" font-family="Times Roman,serif" font-size="14.00">_run_process_action_callbacks</text>
</g>
<!-- ApplicationController&#45;&gt;CareersController -->
<g id="edge14" class="edge"><title>ApplicationController&#45;&gt;CareersController</title>
<path fill="none" stroke="black" d="M815.538,-895.485C914.479,-856.311 1054.55,-800.851 1153.59,-761.639"/>
</g>
<!-- CalendarsController -->
<g id="node10" class="node"><title>CalendarsController</title>
<polyline fill="none" stroke="black" points="19.0349,-17.1752 233.035,-17.1752 "/>
<path fill="none" stroke="black" d="M233.035,-17.1752C239.035,-17.1752 245.035,-23.1752 245.035,-29.1752"/>
<polyline fill="none" stroke="black" points="245.035,-29.1752 245.035,-287.175 "/>
<path fill="none" stroke="black" d="M245.035,-287.175C245.035,-293.175 239.035,-299.175 233.035,-299.175"/>
<polyline fill="none" stroke="black" points="233.035,-299.175 19.0349,-299.175 "/>
<path fill="none" stroke="black" d="M19.0349,-299.175C13.0349,-299.175 7.0349,-293.175 7.0349,-287.175"/>
<polyline fill="none" stroke="black" points="7.0349,-287.175 7.0349,-29.1752 "/>
<path fill="none" stroke="black" d="M7.0349,-29.1752C7.0349,-23.1752 13.0349,-17.1752 19.0349,-17.1752"/>
<text text-anchor="middle" x="126.035" y="-282.575" font-family="Times Roman,serif" font-size="14.00">CalendarsController</text>
<polyline fill="none" stroke="black" points="7.0349,-273.175 245.035,-273.175 "/>
<text text-anchor="start" x="15.0349" y="-256.575" font-family="Times Roman,serif" font-size="14.00">_callback_before_75</text>
<text text-anchor="start" x="15.0349" y="-238.575" font-family="Times Roman,serif" font-size="14.00">_one_time_conditions_valid_74?</text>
<text text-anchor="start" x="15.0349" y="-220.575" font-family="Times Roman,serif" font-size="14.00">_one_time_conditions_valid_76?</text>
<text text-anchor="start" x="15.0349" y="-202.575" font-family="Times Roman,serif" font-size="14.00">create</text>
<text text-anchor="start" x="15.0349" y="-184.575" font-family="Times Roman,serif" font-size="14.00">destroy</text>
<text text-anchor="start" x="15.0349" y="-166.575" font-family="Times Roman,serif" font-size="14.00">edit</text>
<text text-anchor="start" x="15.0349" y="-148.575" font-family="Times Roman,serif" font-size="14.00">index</text>
<text text-anchor="start" x="15.0349" y="-130.575" font-family="Times Roman,serif" font-size="14.00">new</text>
<text text-anchor="start" x="15.0349" y="-112.575" font-family="Times Roman,serif" font-size="14.00">show</text>
<text text-anchor="start" x="15.0349" y="-94.5752" font-family="Times Roman,serif" font-size="14.00">update</text>
<polyline fill="none" stroke="black" points="7.0349,-85.1752 245.035,-85.1752 "/>
<polyline fill="none" stroke="black" points="7.0349,-61.1752 245.035,-61.1752 "/>
<text text-anchor="start" x="15.0349" y="-44.5752" font-family="Times Roman,serif" font-size="14.00">_layout</text>
<text text-anchor="start" x="15.0349" y="-26.5752" font-family="Times Roman,serif" font-size="14.00">_run_process_action_callbacks</text>
</g>
<!-- ApplicationController&#45;&gt;CalendarsController -->
<g id="edge16" class="edge"><title>ApplicationController&#45;&gt;CalendarsController</title>
<path fill="none" stroke="black" d="M619.777,-837.264C518.91,-698.532 341.251,-454.181 228.801,-299.518"/>
</g>
<!-- SpaceTypesController -->
<g id="node11" class="node"><title>SpaceTypesController</title>
<polyline fill="none" stroke="black" points="1155.55,-25.2499 1369.55,-25.2499 "/>
<path fill="none" stroke="black" d="M1369.55,-25.2499C1375.55,-25.2499 1381.55,-31.2499 1381.55,-37.2499"/>
<polyline fill="none" stroke="black" points="1381.55,-37.2499 1381.55,-277.25 "/>
<path fill="none" stroke="black" d="M1381.55,-277.25C1381.55,-283.25 1375.55,-289.25 1369.55,-289.25"/>
<polyline fill="none" stroke="black" points="1369.55,-289.25 1155.55,-289.25 "/>
<path fill="none" stroke="black" d="M1155.55,-289.25C1149.55,-289.25 1143.55,-283.25 1143.55,-277.25"/>
<polyline fill="none" stroke="black" points="1143.55,-277.25 1143.55,-37.2499 "/>
<path fill="none" stroke="black" d="M1143.55,-37.2499C1143.55,-31.2499 1149.55,-25.2499 1155.55,-25.2499"/>
<text text-anchor="middle" x="1262.55" y="-272.65" font-family="Times Roman,serif" font-size="14.00">SpaceTypesController</text>
<polyline fill="none" stroke="black" points="1143.55,-263.25 1381.55,-263.25 "/>
<text text-anchor="start" x="1151.55" y="-246.65" font-family="Times Roman,serif" font-size="14.00">_callback_before_79</text>
<text text-anchor="start" x="1151.55" y="-228.65" font-family="Times Roman,serif" font-size="14.00">_one_time_conditions_valid_78?</text>
<text text-anchor="start" x="1151.55" y="-210.65" font-family="Times Roman,serif" font-size="14.00">_one_time_conditions_valid_80?</text>
<text text-anchor="start" x="1151.55" y="-192.65" font-family="Times Roman,serif" font-size="14.00">create</text>
<text text-anchor="start" x="1151.55" y="-174.65" font-family="Times Roman,serif" font-size="14.00">destroy</text>
<text text-anchor="start" x="1151.55" y="-156.65" font-family="Times Roman,serif" font-size="14.00">edit</text>
<text text-anchor="start" x="1151.55" y="-138.65" font-family="Times Roman,serif" font-size="14.00">index</text>
<text text-anchor="start" x="1151.55" y="-120.65" font-family="Times Roman,serif" font-size="14.00">new</text>
<text text-anchor="start" x="1151.55" y="-102.65" font-family="Times Roman,serif" font-size="14.00">update</text>
<polyline fill="none" stroke="black" points="1143.55,-93.2499 1381.55,-93.2499 "/>
<polyline fill="none" stroke="black" points="1143.55,-69.2499 1381.55,-69.2499 "/>
<text text-anchor="start" x="1151.55" y="-52.6499" font-family="Times Roman,serif" font-size="14.00">_layout</text>
<text text-anchor="start" x="1151.55" y="-34.6499" font-family="Times Roman,serif" font-size="14.00">_run_process_action_callbacks</text>
</g>
<!-- ApplicationController&#45;&gt;SpaceTypesController -->
<g id="edge18" class="edge"><title>ApplicationController&#45;&gt;SpaceTypesController</title>
<path fill="none" stroke="black" d="M772.169,-837.546C874.238,-695.949 1055.91,-443.925 1167.16,-289.578"/>
</g>
<!-- PlansController -->
<g id="node12" class="node"><title>PlansController</title>
<polyline fill="none" stroke="black" points="610.129,-423.008 824.129,-423.008 "/>
<path fill="none" stroke="black" d="M824.129,-423.008C830.129,-423.008 836.129,-429.008 836.129,-435.008"/>
<polyline fill="none" stroke="black" points="836.129,-435.008 836.129,-693.008 "/>
<path fill="none" stroke="black" d="M836.129,-693.008C836.129,-699.008 830.129,-705.008 824.129,-705.008"/>
<polyline fill="none" stroke="black" points="824.129,-705.008 610.129,-705.008 "/>
<path fill="none" stroke="black" d="M610.129,-705.008C604.129,-705.008 598.129,-699.008 598.129,-693.008"/>
<polyline fill="none" stroke="black" points="598.129,-693.008 598.129,-435.008 "/>
<path fill="none" stroke="black" d="M598.129,-435.008C598.129,-429.008 604.129,-423.008 610.129,-423.008"/>
<text text-anchor="middle" x="717.129" y="-688.408" font-family="Times Roman,serif" font-size="14.00">PlansController</text>
<polyline fill="none" stroke="black" points="598.129,-679.008 836.129,-679.008 "/>
<text text-anchor="start" x="606.129" y="-662.408" font-family="Times Roman,serif" font-size="14.00">_callback_before_83</text>
<text text-anchor="start" x="606.129" y="-644.408" font-family="Times Roman,serif" font-size="14.00">_one_time_conditions_valid_82?</text>
<text text-anchor="start" x="606.129" y="-626.408" font-family="Times Roman,serif" font-size="14.00">_one_time_conditions_valid_84?</text>
<text text-anchor="start" x="606.129" y="-608.408" font-family="Times Roman,serif" font-size="14.00">create</text>
<text text-anchor="start" x="606.129" y="-590.408" font-family="Times Roman,serif" font-size="14.00">destroy</text>
<text text-anchor="start" x="606.129" y="-572.408" font-family="Times Roman,serif" font-size="14.00">edit</text>
<text text-anchor="start" x="606.129" y="-554.408" font-family="Times Roman,serif" font-size="14.00">index</text>
<text text-anchor="start" x="606.129" y="-536.408" font-family="Times Roman,serif" font-size="14.00">new</text>
<text text-anchor="start" x="606.129" y="-518.408" font-family="Times Roman,serif" font-size="14.00">show</text>
<text text-anchor="start" x="606.129" y="-500.408" font-family="Times Roman,serif" font-size="14.00">update</text>
<polyline fill="none" stroke="black" points="598.129,-491.008 836.129,-491.008 "/>
<polyline fill="none" stroke="black" points="598.129,-467.008 836.129,-467.008 "/>
<text text-anchor="start" x="606.129" y="-450.408" font-family="Times Roman,serif" font-size="14.00">_layout</text>
<text text-anchor="start" x="606.129" y="-432.408" font-family="Times Roman,serif" font-size="14.00">_run_process_action_callbacks</text>
</g>
<!-- ApplicationController&#45;&gt;PlansController -->
<g id="edge20" class="edge"><title>ApplicationController&#45;&gt;PlansController</title>
<path fill="none" stroke="black" d="M702.163,-837.432C704.403,-796.508 707.003,-749.004 709.402,-705.185"/>
</g>
<!-- UsersController -->
<g id="node13" class="node"><title>UsersController</title>
<polyline fill="none" stroke="black" points="13,-1009.64 227,-1009.64 "/>
<path fill="none" stroke="black" d="M227,-1009.64C233,-1009.64 239,-1015.64 239,-1021.64"/>
<polyline fill="none" stroke="black" points="239,-1021.64 239,-1315.64 "/>
<path fill="none" stroke="black" d="M239,-1315.64C239,-1321.64 233,-1327.64 227,-1327.64"/>
<polyline fill="none" stroke="black" points="227,-1327.64 13,-1327.64 "/>
<path fill="none" stroke="black" d="M13,-1327.64C7,-1327.64 1,-1321.64 1,-1315.64"/>
<polyline fill="none" stroke="black" points="1,-1315.64 1,-1021.64 "/>
<path fill="none" stroke="black" d="M1,-1021.64C1,-1015.64 7,-1009.64 13,-1009.64"/>
<text text-anchor="middle" x="120" y="-1311.04" font-family="Times Roman,serif" font-size="14.00">UsersController</text>
<polyline fill="none" stroke="black" points="1,-1301.64 239,-1301.64 "/>
<text text-anchor="start" x="9" y="-1285.04" font-family="Times Roman,serif" font-size="14.00">_callback_before_87</text>
<text text-anchor="start" x="9" y="-1267.04" font-family="Times Roman,serif" font-size="14.00">_one_time_conditions_valid_86?</text>
<text text-anchor="start" x="9" y="-1249.04" font-family="Times Roman,serif" font-size="14.00">_one_time_conditions_valid_88?</text>
<text text-anchor="start" x="9" y="-1231.04" font-family="Times Roman,serif" font-size="14.00">create</text>
<text text-anchor="start" x="9" y="-1213.04" font-family="Times Roman,serif" font-size="14.00">destroy</text>
<text text-anchor="start" x="9" y="-1195.04" font-family="Times Roman,serif" font-size="14.00">edit</text>
<text text-anchor="start" x="9" y="-1177.04" font-family="Times Roman,serif" font-size="14.00">index</text>
<text text-anchor="start" x="9" y="-1159.04" font-family="Times Roman,serif" font-size="14.00">new</text>
<text text-anchor="start" x="9" y="-1141.04" font-family="Times Roman,serif" font-size="14.00">reset_pass</text>
<text text-anchor="start" x="9" y="-1123.04" font-family="Times Roman,serif" font-size="14.00">show</text>
<text text-anchor="start" x="9" y="-1105.04" font-family="Times Roman,serif" font-size="14.00">update</text>
<text text-anchor="start" x="9" y="-1087.04" font-family="Times Roman,serif" font-size="14.00">update_pass</text>
<polyline fill="none" stroke="black" points="1,-1077.64 239,-1077.64 "/>
<polyline fill="none" stroke="black" points="1,-1053.64 239,-1053.64 "/>
<text text-anchor="start" x="9" y="-1037.04" font-family="Times Roman,serif" font-size="14.00">_layout</text>
<text text-anchor="start" x="9" y="-1019.04" font-family="Times Roman,serif" font-size="14.00">_run_process_action_callbacks</text>
</g>
<!-- ApplicationController&#45;&gt;UsersController -->
<g id="edge22" class="edge"><title>ApplicationController&#45;&gt;UsersController</title>
<path fill="none" stroke="black" d="M577.322,-989.342C478.425,-1028.12 338.414,-1083.01 239.423,-1121.82"/>
</g>
<!-- EquipmentController -->
<g id="node14" class="node"><title>EquipmentController</title>
<polyline fill="none" stroke="black" points="1147.02,-968.152 1361.02,-968.152 "/>
<path fill="none" stroke="black" d="M1361.02,-968.152C1367.02,-968.152 1373.02,-974.152 1373.02,-980.152"/>
<polyline fill="none" stroke="black" points="1373.02,-980.152 1373.02,-1382.15 "/>
<path fill="none" stroke="black" d="M1373.02,-1382.15C1373.02,-1388.15 1367.02,-1394.15 1361.02,-1394.15"/>
<polyline fill="none" stroke="black" points="1361.02,-1394.15 1147.02,-1394.15 "/>
<path fill="none" stroke="black" d="M1147.02,-1394.15C1141.02,-1394.15 1135.02,-1388.15 1135.02,-1382.15"/>
<polyline fill="none" stroke="black" points="1135.02,-1382.15 1135.02,-980.152 "/>
<path fill="none" stroke="black" d="M1135.02,-980.152C1135.02,-974.152 1141.02,-968.152 1147.02,-968.152"/>
<text text-anchor="middle" x="1254.02" y="-1377.55" font-family="Times Roman,serif" font-size="14.00">EquipmentController</text>
<polyline fill="none" stroke="black" points="1135.02,-1368.15 1373.02,-1368.15 "/>
<text text-anchor="start" x="1143.02" y="-1351.55" font-family="Times Roman,serif" font-size="14.00">_callback_before_91</text>
<text text-anchor="start" x="1143.02" y="-1333.55" font-family="Times Roman,serif" font-size="14.00">_one_time_conditions_valid_90?</text>
<text text-anchor="start" x="1143.02" y="-1315.55" font-family="Times Roman,serif" font-size="14.00">_one_time_conditions_valid_92?</text>
<text text-anchor="start" x="1143.02" y="-1297.55" font-family="Times Roman,serif" font-size="14.00">assign_event</text>
<text text-anchor="start" x="1143.02" y="-1279.55" font-family="Times Roman,serif" font-size="14.00">calendar</text>
<text text-anchor="start" x="1143.02" y="-1261.55" font-family="Times Roman,serif" font-size="14.00">create</text>
<text text-anchor="start" x="1143.02" y="-1243.55" font-family="Times Roman,serif" font-size="14.00">create_events</text>
<text text-anchor="start" x="1143.02" y="-1225.55" font-family="Times Roman,serif" font-size="14.00">create_single_event</text>
<text text-anchor="start" x="1143.02" y="-1207.55" font-family="Times Roman,serif" font-size="14.00">destroy</text>
<text text-anchor="start" x="1143.02" y="-1189.55" font-family="Times Roman,serif" font-size="14.00">edit</text>
<text text-anchor="start" x="1143.02" y="-1171.55" font-family="Times Roman,serif" font-size="14.00">equipment_events</text>
<text text-anchor="start" x="1143.02" y="-1153.55" font-family="Times Roman,serif" font-size="14.00">event_info</text>
<text text-anchor="start" x="1143.02" y="-1135.55" font-family="Times Roman,serif" font-size="14.00">index</text>
<text text-anchor="start" x="1143.02" y="-1117.55" font-family="Times Roman,serif" font-size="14.00">new</text>
<text text-anchor="start" x="1143.02" y="-1099.55" font-family="Times Roman,serif" font-size="14.00">new_event</text>
<text text-anchor="start" x="1143.02" y="-1081.55" font-family="Times Roman,serif" font-size="14.00">remove_event</text>
<text text-anchor="start" x="1143.02" y="-1063.55" font-family="Times Roman,serif" font-size="14.00">update</text>
<polyline fill="none" stroke="black" points="1135.02,-1054.15 1373.02,-1054.15 "/>
<polyline fill="none" stroke="black" points="1135.02,-1030.15 1373.02,-1030.15 "/>
<text text-anchor="start" x="1143.02" y="-1013.55" font-family="Times Roman,serif" font-size="14.00">_layout</text>
<text text-anchor="start" x="1143.02" y="-995.552" font-family="Times Roman,serif" font-size="14.00">_run_process_action_callbacks</text>
<text text-anchor="start" x="1143.02" y="-977.552" font-family="Times Roman,serif" font-size="14.00">clean_params</text>
</g>
<!-- ApplicationController&#45;&gt;EquipmentController -->
<g id="edge24" class="edge"><title>ApplicationController&#45;&gt;EquipmentController</title>
<path fill="none" stroke="black" d="M815.684,-993.672C909.904,-1033.97 1040.76,-1089.94 1134.93,-1130.22"/>
</g>
</g>
</svg>
