<?xml version="1.0" encoding="UTF-8" standalone="no"?>
<!DOCTYPE svg PUBLIC "-//W3C//DTD SVG 1.1//EN"
 "http://www.w3.org/Graphics/SVG/1.1/DTD/svg11.dtd">
<!-- Generated by graphviz version 2.26.3 (20100126.1600)
 -->
<!-- Title: models_diagram Pages: 1 -->
<svg width="720pt" height="324pt"
 viewBox="0.00 0.00 720.00 324.00" xmlns="http://www.w3.org/2000/svg" xmlns:xlink="http://www.w3.org/1999/xlink">
<g id="graph1" class="graph" transform="scale(1 1) rotate(0) translate(4 320)">
<title>models_diagram</title>
<polygon fill="white" stroke="white" points="-4,5 -4,-320 717,-320 717,5 -4,5"/>
<!-- _diagram_info -->
<g id="node1" class="node"><title>_diagram_info</title>
<text text-anchor="start" x="8" y="-299.8" font-family="Times Roman,serif" font-size="13.00">Models diagram</text>
<text text-anchor="start" x="8" y="-282.8" font-family="Times Roman,serif" font-size="13.00">Date: Nov 19 2012 &#45; 20:47</text>
<text text-anchor="start" x="8" y="-265.8" font-family="Times Roman,serif" font-size="13.00">Migration version: 18</text>
<text text-anchor="start" x="8" y="-248.8" font-family="Times Roman,serif" font-size="13.00">Generated by RailRoady 1.1.0</text>
<text text-anchor="start" x="8" y="-231.8" font-family="Times Roman,serif" font-size="13.00">http://railroady.prestonlee.com</text>
</g>
<!-- Ability -->
<g id="node2" class="node"><title>Ability</title>
<polygon fill="none" stroke="black" points="288,-287 228,-287 228,-251 288,-251 288,-287"/>
<text text-anchor="middle" x="258" y="-265.4" font-family="Times Roman,serif" font-size="14.00">Ability</text>
</g>
<!-- EquipmentEvent -->
<g id="node3" class="node"><title>EquipmentEvent</title>
<ellipse fill="none" stroke="black" cx="370" cy="-167" rx="92.1303" ry="18.3848"/>
<text text-anchor="middle" x="370" y="-163.4" font-family="Times Roman,serif" font-size="14.00">EquipmentEvent</text>
</g>
<!-- Space -->
<g id="node4" class="node"><title>Space</title>
<ellipse fill="none" stroke="black" cx="643" cy="-93" rx="39.8075" ry="18.3848"/>
<text text-anchor="middle" x="643" y="-89.4" font-family="Times Roman,serif" font-size="14.00">Space</text>
</g>
<!-- Event -->
<g id="node9" class="node"><title>Event</title>
<ellipse fill="none" stroke="black" cx="530" cy="-19" rx="39.8075" ry="18.3848"/>
<text text-anchor="middle" x="530" y="-15.4" font-family="Times Roman,serif" font-size="14.00">Event</text>
</g>
<!-- Space&#45;&gt;Event -->
<g id="edge2" class="edge"><title>Space&#45;&gt;Event</title>
<path fill="none" stroke="#f2b111" d="M612.691,-73.1516C596.893,-62.806 577.587,-50.1631 561.603,-39.696"/>
<ellipse fill="none" stroke="#f2b111" cx="616.514" cy="-75.655" rx="4.00002" ry="4.00002"/>
<polygon fill="#f2b111" stroke="#f2b111" points="561.475,-39.6118 555.574,-30.3687 557.292,-36.8726 553.109,-34.1333 553.109,-34.1333 553.109,-34.1333 557.292,-36.8726 550.644,-37.8979 561.475,-39.6118 561.475,-39.6118"/>
</g>
<!-- SpaceType -->
<g id="node5" class="node"><title>SpaceType</title>
<ellipse fill="none" stroke="black" cx="649" cy="-167" rx="62.9325" ry="18.3848"/>
<text text-anchor="middle" x="649" y="-163.4" font-family="Times Roman,serif" font-size="14.00">SpaceType</text>
</g>
<!-- SpaceType&#45;&gt;Space -->
<g id="edge4" class="edge"><title>SpaceType&#45;&gt;Space</title>
<path fill="none" stroke="#13352a" d="M646.836,-140.309C646.355,-134.377 645.843,-128.061 645.355,-122.04"/>
<ellipse fill="none" stroke="#13352a" cx="647.163" cy="-144.34" rx="4" ry="4"/>
<polygon fill="#13352a" stroke="#13352a" points="645.322,-121.635 648.999,-111.304 644.918,-116.651 644.514,-111.667 644.514,-111.667 644.514,-111.667 644.918,-116.651 640.028,-112.031 645.322,-121.635 645.322,-121.635"/>
</g>
<!-- User -->
<g id="node6" class="node"><title>User</title>
<ellipse fill="none" stroke="black" cx="609" cy="-269" rx="33.9411" ry="18.3848"/>
<text text-anchor="middle" x="609" y="-265.4" font-family="Times Roman,serif" font-size="14.00">User</text>
</g>
<!-- Equipment -->
<g id="node7" class="node"><title>Equipment</title>
<ellipse fill="none" stroke="black" cx="370" cy="-269" rx="63.8479" ry="18.3848"/>
<text text-anchor="middle" x="370" y="-265.4" font-family="Times Roman,serif" font-size="14.00">Equipment</text>
</g>
<!-- Equipment&#45;&gt;EquipmentEvent -->
<g id="edge6" class="edge"><title>Equipment&#45;&gt;EquipmentEvent</title>
<path fill="none" stroke="#22ccaf" d="M370,-242.015C370,-227.835 370,-210.445 370,-195.98"/>
<ellipse fill="none" stroke="#22ccaf" cx="370" cy="-246.292" rx="4" ry="4"/>
<polygon fill="#22ccaf" stroke="#22ccaf" points="370,-195.59 374.5,-185.59 370,-190.59 370,-185.59 370,-185.59 370,-185.59 370,-190.59 365.5,-185.59 370,-195.59 370,-195.59"/>
</g>
<!-- Plan -->
<g id="node8" class="node"><title>Plan</title>
<ellipse fill="none" stroke="black" cx="524" cy="-269" rx="33.234" ry="18.3848"/>
<text text-anchor="middle" x="524" y="-265.4" font-family="Times Roman,serif" font-size="14.00">Plan</text>
</g>
<!-- Career -->
<g id="node11" class="node"><title>Career</title>
<ellipse fill="none" stroke="black" cx="524" cy="-167" rx="44.0472" ry="18.3848"/>
<text text-anchor="middle" x="524" y="-163.4" font-family="Times Roman,serif" font-size="14.00">Career</text>
</g>
<!-- Plan&#45;&gt;Career -->
<g id="edge8" class="edge"><title>Plan&#45;&gt;Career</title>
<path fill="none" stroke="#684b07" d="M524,-242.015C524,-227.835 524,-210.445 524,-195.98"/>
<ellipse fill="none" stroke="#684b07" cx="524" cy="-246.292" rx="4" ry="4"/>
<polygon fill="#684b07" stroke="#684b07" points="524,-195.59 528.5,-185.59 524,-190.59 524,-185.59 524,-185.59 524,-185.59 524,-190.59 519.5,-185.59 524,-195.59 524,-195.59"/>
</g>
<!-- Calendar -->
<g id="node10" class="node"><title>Calendar</title>
<ellipse fill="none" stroke="black" cx="413" cy="-93" rx="55.1543" ry="18.3848"/>
<text text-anchor="middle" x="413" y="-89.4" font-family="Times Roman,serif" font-size="14.00">Calendar</text>
</g>
<!-- Calendar&#45;&gt;Event -->
<g id="edge10" class="edge"><title>Calendar&#45;&gt;Event</title>
<path fill="none" stroke="#a38f96" d="M445.797,-72.2564C461.964,-62.0311 481.4,-49.7383 497.524,-39.5406"/>
<ellipse fill="none" stroke="#a38f96" cx="442.347" cy="-74.4388" rx="4.00002" ry="4.00002"/>
<polygon fill="#a38f96" stroke="#a38f96" points="497.647,-39.4627 508.504,-37.9204 501.873,-36.7899 506.098,-34.1172 506.098,-34.1172 506.098,-34.1172 501.873,-36.7899 503.693,-30.3141 497.647,-39.4627 497.647,-39.4627"/>
</g>
<!-- Matter -->
<g id="node12" class="node"><title>Matter</title>
<ellipse fill="none" stroke="black" cx="530" cy="-93" rx="44.0472" ry="18.3848"/>
<text text-anchor="middle" x="530" y="-89.4" font-family="Times Roman,serif" font-size="14.00">Matter</text>
</g>
<!-- Career&#45;&gt;Matter -->
<g id="edge12" class="edge"><title>Career&#45;&gt;Matter</title>
<path fill="none" stroke="#001098" d="M526.164,-140.309C526.645,-134.377 527.157,-128.061 527.645,-122.04"/>
<ellipse fill="none" stroke="#001098" cx="525.837" cy="-144.34" rx="4" ry="4"/>
<polygon fill="#001098" stroke="#001098" points="527.678,-121.635 532.972,-112.031 528.082,-116.651 528.486,-111.667 528.486,-111.667 528.486,-111.667 528.082,-116.651 524.001,-111.304 527.678,-121.635 527.678,-121.635"/>
</g>
<!-- Matter&#45;&gt;Event -->
<g id="edge14" class="edge"><title>Matter&#45;&gt;Event</title>
<path fill="none" stroke="#40681c" d="M530,-66.309C530,-60.3769 530,-54.0606 530,-48.0396"/>
<ellipse fill="none" stroke="#40681c" cx="530" cy="-70.3267" rx="4" ry="4"/>
<polygon fill="#40681c" stroke="#40681c" points="530,-47.6674 534.5,-37.6673 530,-42.6674 530,-37.6674 530,-37.6674 530,-37.6674 530,-42.6674 525.5,-37.6674 530,-47.6674 530,-47.6674"/>
</g>
</g>
</svg>
