<?xml version="1.0" encoding="UTF-8" standalone="no"?>
<!DOCTYPE svg PUBLIC "-//W3C//DTD SVG 1.1//EN"
 "http://www.w3.org/Graphics/SVG/1.1/DTD/svg11.dtd">
<!-- Generated by graphviz version 2.26.3 (20100126.1600)
 -->
<!-- Title: models_diagram Pages: 1 -->
<svg width="934pt" height="1232pt"
 viewBox="0.00 0.00 934.00 1232.00" xmlns="http://www.w3.org/2000/svg" xmlns:xlink="http://www.w3.org/1999/xlink">
<g id="graph1" class="graph" transform="scale(1 1) rotate(0) translate(4 1228)">
<title>models_diagram</title>
<polygon fill="white" stroke="white" points="-4,5 -4,-1228 931,-1228 931,5 -4,5"/>
<!-- _diagram_info -->
<g id="node1" class="node"><title>_diagram_info</title>
<text text-anchor="start" x="8" y="-1092.8" font-family="Times Roman,serif" font-size="13.00">Models diagram</text>
<text text-anchor="start" x="8" y="-1075.8" font-family="Times Roman,serif" font-size="13.00">Date: Nov 19 2012 &#45; 20:46</text>
<text text-anchor="start" x="8" y="-1058.8" font-family="Times Roman,serif" font-size="13.00">Migration version: 18</text>
<text text-anchor="start" x="8" y="-1041.8" font-family="Times Roman,serif" font-size="13.00">Generated by RailRoady 1.1.0</text>
<text text-anchor="start" x="8" y="-1024.8" font-family="Times Roman,serif" font-size="13.00">http://railroady.prestonlee.com</text>
</g>
<!-- Ability -->
<g id="node2" class="node"><title>Ability</title>
<polygon fill="none" stroke="black" points="228,-1036 228,-1088 288,-1088 288,-1036 228,-1036"/>
<text text-anchor="middle" x="258" y="-1071.4" font-family="Times Roman,serif" font-size="14.00">Ability</text>
<polyline fill="none" stroke="black" points="228,-1062 288,-1062 "/>
<text text-anchor="middle" x="258" y="-1045.4" font-family="Times Roman,serif" font-size="14.00"> </text>
</g>
<!-- EquipmentEvent -->
<g id="node3" class="node"><title>EquipmentEvent</title>
<polyline fill="none" stroke="black" points="316,-667 460,-667 "/>
<path fill="none" stroke="black" d="M460,-667C466,-667 472,-673 472,-679"/>
<polyline fill="none" stroke="black" points="472,-679 472,-851 "/>
<path fill="none" stroke="black" d="M472,-851C472,-857 466,-863 460,-863"/>
<polyline fill="none" stroke="black" points="460,-863 316,-863 "/>
<path fill="none" stroke="black" d="M316,-863C310,-863 304,-857 304,-851"/>
<polyline fill="none" stroke="black" points="304,-851 304,-679 "/>
<path fill="none" stroke="black" d="M304,-679C304,-673 310,-667 316,-667"/>
<text text-anchor="middle" x="388" y="-846.4" font-family="Times Roman,serif" font-size="14.00">EquipmentEvent</text>
<polyline fill="none" stroke="black" points="304,-837 472,-837 "/>
<text text-anchor="start" x="312" y="-820.4" font-family="Times Roman,serif" font-size="14.00">id :integer</text>
<text text-anchor="start" x="312" y="-802.4" font-family="Times Roman,serif" font-size="14.00">dtstart :datetime</text>
<text text-anchor="start" x="312" y="-784.4" font-family="Times Roman,serif" font-size="14.00">dtend :datetime</text>
<text text-anchor="start" x="312" y="-766.4" font-family="Times Roman,serif" font-size="14.00">event_id :integer</text>
<text text-anchor="start" x="312" y="-748.4" font-family="Times Roman,serif" font-size="14.00">equipment_id :integer</text>
<text text-anchor="start" x="312" y="-730.4" font-family="Times Roman,serif" font-size="14.00">space_id :integer</text>
<text text-anchor="start" x="312" y="-712.4" font-family="Times Roman,serif" font-size="14.00">created_at :datetime</text>
<text text-anchor="start" x="312" y="-694.4" font-family="Times Roman,serif" font-size="14.00">updated_at :datetime</text>
<text text-anchor="start" x="312" y="-676.4" font-family="Times Roman,serif" font-size="14.00">name :string</text>
</g>
<!-- Space -->
<g id="node4" class="node"><title>Space</title>
<polyline fill="none" stroke="black" points="683.5,-451 830.5,-451 "/>
<path fill="none" stroke="black" d="M830.5,-451C836.5,-451 842.5,-457 842.5,-463"/>
<polyline fill="none" stroke="black" points="842.5,-463 842.5,-617 "/>
<path fill="none" stroke="black" d="M842.5,-617C842.5,-623 836.5,-629 830.5,-629"/>
<polyline fill="none" stroke="black" points="830.5,-629 683.5,-629 "/>
<path fill="none" stroke="black" d="M683.5,-629C677.5,-629 671.5,-623 671.5,-617"/>
<polyline fill="none" stroke="black" points="671.5,-617 671.5,-463 "/>
<path fill="none" stroke="black" d="M671.5,-463C671.5,-457 677.5,-451 683.5,-451"/>
<text text-anchor="middle" x="757" y="-612.4" font-family="Times Roman,serif" font-size="14.00">Space</text>
<polyline fill="none" stroke="black" points="671.5,-603 842.5,-603 "/>
<text text-anchor="start" x="679.5" y="-586.4" font-family="Times Roman,serif" font-size="14.00">id :integer</text>
<text text-anchor="start" x="679.5" y="-568.4" font-family="Times Roman,serif" font-size="14.00">name :string</text>
<text text-anchor="start" x="679.5" y="-550.4" font-family="Times Roman,serif" font-size="14.00">short_name :string</text>
<text text-anchor="start" x="679.5" y="-532.4" font-family="Times Roman,serif" font-size="14.00">description :text</text>
<text text-anchor="start" x="679.5" y="-514.4" font-family="Times Roman,serif" font-size="14.00">capacity :integer</text>
<text text-anchor="start" x="679.5" y="-496.4" font-family="Times Roman,serif" font-size="14.00">space_type_id :integer</text>
<text text-anchor="start" x="679.5" y="-478.4" font-family="Times Roman,serif" font-size="14.00">created_at :datetime</text>
<text text-anchor="start" x="679.5" y="-460.4" font-family="Times Roman,serif" font-size="14.00">updated_at :datetime</text>
</g>
<!-- Event -->
<g id="node9" class="node"><title>Event</title>
<polyline fill="none" stroke="black" points="501.5,-1 642.5,-1 "/>
<path fill="none" stroke="black" d="M642.5,-1C648.5,-1 654.5,-7 654.5,-13"/>
<polyline fill="none" stroke="black" points="654.5,-13 654.5,-401 "/>
<path fill="none" stroke="black" d="M654.5,-401C654.5,-407 648.5,-413 642.5,-413"/>
<polyline fill="none" stroke="black" points="642.5,-413 501.5,-413 "/>
<path fill="none" stroke="black" d="M501.5,-413C495.5,-413 489.5,-407 489.5,-401"/>
<polyline fill="none" stroke="black" points="489.5,-401 489.5,-13 "/>
<path fill="none" stroke="black" d="M489.5,-13C489.5,-7 495.5,-1 501.5,-1"/>
<text text-anchor="middle" x="572" y="-396.4" font-family="Times Roman,serif" font-size="14.00">Event</text>
<polyline fill="none" stroke="black" points="489.5,-387 654.5,-387 "/>
<text text-anchor="start" x="497.5" y="-370.4" font-family="Times Roman,serif" font-size="14.00">id :integer</text>
<text text-anchor="start" x="497.5" y="-352.4" font-family="Times Roman,serif" font-size="14.00">name :string</text>
<text text-anchor="start" x="497.5" y="-334.4" font-family="Times Roman,serif" font-size="14.00">matter_id :integer</text>
<text text-anchor="start" x="497.5" y="-316.4" font-family="Times Roman,serif" font-size="14.00">space_id :integer</text>
<text text-anchor="start" x="497.5" y="-298.4" font-family="Times Roman,serif" font-size="14.00">dtstart :datetime</text>
<text text-anchor="start" x="497.5" y="-280.4" font-family="Times Roman,serif" font-size="14.00">dtend :datetime</text>
<text text-anchor="start" x="497.5" y="-262.4" font-family="Times Roman,serif" font-size="14.00">exdate :text</text>
<text text-anchor="start" x="497.5" y="-244.4" font-family="Times Roman,serif" font-size="14.00">rdate :text</text>
<text text-anchor="start" x="497.5" y="-226.4" font-family="Times Roman,serif" font-size="14.00">recurrent :boolean</text>
<text text-anchor="start" x="497.5" y="-208.4" font-family="Times Roman,serif" font-size="14.00">freq :string</text>
<text text-anchor="start" x="497.5" y="-190.4" font-family="Times Roman,serif" font-size="14.00">calendar_id :integer</text>
<text text-anchor="start" x="497.5" y="-172.4" font-family="Times Roman,serif" font-size="14.00">created_at :datetime</text>
<text text-anchor="start" x="497.5" y="-154.4" font-family="Times Roman,serif" font-size="14.00">updated_at :datetime</text>
<text text-anchor="start" x="497.5" y="-136.4" font-family="Times Roman,serif" font-size="14.00">interval :integer</text>
<text text-anchor="start" x="497.5" y="-118.4" font-family="Times Roman,serif" font-size="14.00">until_date :datetime</text>
<text text-anchor="start" x="497.5" y="-100.4" font-family="Times Roman,serif" font-size="14.00">byday :string</text>
<text text-anchor="start" x="497.5" y="-82.4" font-family="Times Roman,serif" font-size="14.00">count :integer</text>
<text text-anchor="start" x="497.5" y="-64.4" font-family="Times Roman,serif" font-size="14.00">start_date :date</text>
<text text-anchor="start" x="497.5" y="-46.4" font-family="Times Roman,serif" font-size="14.00">start_time :time</text>
<text text-anchor="start" x="497.5" y="-28.4" font-family="Times Roman,serif" font-size="14.00">end_time :time</text>
<text text-anchor="start" x="497.5" y="-10.4" font-family="Times Roman,serif" font-size="14.00">responsible :string</text>
</g>
<!-- Space&#45;&gt;Event -->
<g id="edge2" class="edge"><title>Space&#45;&gt;Event</title>
<path fill="none" stroke="#8c512a" d="M703.375,-443.476C689.606,-418.691 674.432,-391.377 659.435,-364.384"/>
<ellipse fill="none" stroke="#8c512a" cx="705.481" cy="-447.265" rx="4.00002" ry="4.00002"/>
<polygon fill="#8c512a" stroke="#8c512a" points="659.431,-364.376 658.509,-353.449 657.003,-360.006 654.575,-355.635 654.575,-355.635 654.575,-355.635 657.003,-360.006 650.641,-357.82 659.431,-364.376 659.431,-364.376"/>
</g>
<!-- SpaceType -->
<g id="node5" class="node"><title>SpaceType</title>
<polyline fill="none" stroke="black" points="686.5,-712 827.5,-712 "/>
<path fill="none" stroke="black" d="M827.5,-712C833.5,-712 839.5,-718 839.5,-724"/>
<polyline fill="none" stroke="black" points="839.5,-724 839.5,-806 "/>
<path fill="none" stroke="black" d="M839.5,-806C839.5,-812 833.5,-818 827.5,-818"/>
<polyline fill="none" stroke="black" points="827.5,-818 686.5,-818 "/>
<path fill="none" stroke="black" d="M686.5,-818C680.5,-818 674.5,-812 674.5,-806"/>
<polyline fill="none" stroke="black" points="674.5,-806 674.5,-724 "/>
<path fill="none" stroke="black" d="M674.5,-724C674.5,-718 680.5,-712 686.5,-712"/>
<text text-anchor="middle" x="757" y="-801.4" font-family="Times Roman,serif" font-size="14.00">SpaceType</text>
<polyline fill="none" stroke="black" points="674.5,-792 839.5,-792 "/>
<text text-anchor="start" x="682.5" y="-775.4" font-family="Times Roman,serif" font-size="14.00">id :integer</text>
<text text-anchor="start" x="682.5" y="-757.4" font-family="Times Roman,serif" font-size="14.00">name :string</text>
<text text-anchor="start" x="682.5" y="-739.4" font-family="Times Roman,serif" font-size="14.00">created_at :datetime</text>
<text text-anchor="start" x="682.5" y="-721.4" font-family="Times Roman,serif" font-size="14.00">updated_at :datetime</text>
</g>
<!-- SpaceType&#45;&gt;Space -->
<g id="edge4" class="edge"><title>SpaceType&#45;&gt;Space</title>
<path fill="none" stroke="#2aee3f" d="M757,-703.681C757,-683.778 757,-661.159 757,-639.223"/>
<ellipse fill="none" stroke="#2aee3f" cx="757" cy="-707.963" rx="4" ry="4"/>
<polygon fill="#2aee3f" stroke="#2aee3f" points="757,-639.205 761.5,-629.205 757,-634.205 757,-629.205 757,-629.205 757,-629.205 757,-634.205 752.5,-629.205 757,-639.205 757,-639.205"/>
</g>
<!-- User -->
<g id="node6" class="node"><title>User</title>
<polyline fill="none" stroke="black" points="684,-901 914,-901 "/>
<path fill="none" stroke="black" d="M914,-901C920,-901 926,-907 926,-913"/>
<polyline fill="none" stroke="black" points="926,-913 926,-1211 "/>
<path fill="none" stroke="black" d="M926,-1211C926,-1217 920,-1223 914,-1223"/>
<polyline fill="none" stroke="black" points="914,-1223 684,-1223 "/>
<path fill="none" stroke="black" d="M684,-1223C678,-1223 672,-1217 672,-1211"/>
<polyline fill="none" stroke="black" points="672,-1211 672,-913 "/>
<path fill="none" stroke="black" d="M672,-913C672,-907 678,-901 684,-901"/>
<text text-anchor="middle" x="799" y="-1206.4" font-family="Times Roman,serif" font-size="14.00">User</text>
<polyline fill="none" stroke="black" points="672,-1197 926,-1197 "/>
<text text-anchor="start" x="680" y="-1180.4" font-family="Times Roman,serif" font-size="14.00">id :integer</text>
<text text-anchor="start" x="680" y="-1162.4" font-family="Times Roman,serif" font-size="14.00">email :string</text>
<text text-anchor="start" x="680" y="-1144.4" font-family="Times Roman,serif" font-size="14.00">encrypted_password :string</text>
<text text-anchor="start" x="680" y="-1126.4" font-family="Times Roman,serif" font-size="14.00">reset_password_token :string</text>
<text text-anchor="start" x="680" y="-1108.4" font-family="Times Roman,serif" font-size="14.00">reset_password_sent_at :datetime</text>
<text text-anchor="start" x="680" y="-1090.4" font-family="Times Roman,serif" font-size="14.00">remember_created_at :datetime</text>
<text text-anchor="start" x="680" y="-1072.4" font-family="Times Roman,serif" font-size="14.00">sign_in_count :integer</text>
<text text-anchor="start" x="680" y="-1054.4" font-family="Times Roman,serif" font-size="14.00">current_sign_in_at :datetime</text>
<text text-anchor="start" x="680" y="-1036.4" font-family="Times Roman,serif" font-size="14.00">last_sign_in_at :datetime</text>
<text text-anchor="start" x="680" y="-1018.4" font-family="Times Roman,serif" font-size="14.00">current_sign_in_ip :string</text>
<text text-anchor="start" x="680" y="-1000.4" font-family="Times Roman,serif" font-size="14.00">last_sign_in_ip :string</text>
<text text-anchor="start" x="680" y="-982.4" font-family="Times Roman,serif" font-size="14.00">created_at :datetime</text>
<text text-anchor="start" x="680" y="-964.4" font-family="Times Roman,serif" font-size="14.00">updated_at :datetime</text>
<text text-anchor="start" x="680" y="-946.4" font-family="Times Roman,serif" font-size="14.00">username :string</text>
<text text-anchor="start" x="680" y="-928.4" font-family="Times Roman,serif" font-size="14.00">full_name :string</text>
<text text-anchor="start" x="680" y="-910.4" font-family="Times Roman,serif" font-size="14.00">role :string</text>
</g>
<!-- Equipment -->
<g id="node7" class="node"><title>Equipment</title>
<polyline fill="none" stroke="black" points="317.5,-1000 458.5,-1000 "/>
<path fill="none" stroke="black" d="M458.5,-1000C464.5,-1000 470.5,-1006 470.5,-1012"/>
<polyline fill="none" stroke="black" points="470.5,-1012 470.5,-1112 "/>
<path fill="none" stroke="black" d="M470.5,-1112C470.5,-1118 464.5,-1124 458.5,-1124"/>
<polyline fill="none" stroke="black" points="458.5,-1124 317.5,-1124 "/>
<path fill="none" stroke="black" d="M317.5,-1124C311.5,-1124 305.5,-1118 305.5,-1112"/>
<polyline fill="none" stroke="black" points="305.5,-1112 305.5,-1012 "/>
<path fill="none" stroke="black" d="M305.5,-1012C305.5,-1006 311.5,-1000 317.5,-1000"/>
<text text-anchor="middle" x="388" y="-1107.4" font-family="Times Roman,serif" font-size="14.00">Equipment</text>
<polyline fill="none" stroke="black" points="305.5,-1098 470.5,-1098 "/>
<text text-anchor="start" x="313.5" y="-1081.4" font-family="Times Roman,serif" font-size="14.00">id :integer</text>
<text text-anchor="start" x="313.5" y="-1063.4" font-family="Times Roman,serif" font-size="14.00">name :string</text>
<text text-anchor="start" x="313.5" y="-1045.4" font-family="Times Roman,serif" font-size="14.00">description :text</text>
<text text-anchor="start" x="313.5" y="-1027.4" font-family="Times Roman,serif" font-size="14.00">created_at :datetime</text>
<text text-anchor="start" x="313.5" y="-1009.4" font-family="Times Roman,serif" font-size="14.00">updated_at :datetime</text>
</g>
<!-- Equipment&#45;&gt;EquipmentEvent -->
<g id="edge6" class="edge"><title>Equipment&#45;&gt;EquipmentEvent</title>
<path fill="none" stroke="#de1a09" d="M388,-991.701C388,-956.386 388,-912.814 388,-873.337"/>
<ellipse fill="none" stroke="#de1a09" cx="388" cy="-995.739" rx="4" ry="4"/>
<polygon fill="#de1a09" stroke="#de1a09" points="388,-873.129 392.5,-863.129 388,-868.129 388,-863.129 388,-863.129 388,-863.129 388,-868.129 383.5,-863.129 388,-873.129 388,-873.129"/>
</g>
<!-- Plan -->
<g id="node8" class="node"><title>Plan</title>
<polyline fill="none" stroke="black" points="501.5,-1009 642.5,-1009 "/>
<path fill="none" stroke="black" d="M642.5,-1009C648.5,-1009 654.5,-1015 654.5,-1021"/>
<polyline fill="none" stroke="black" points="654.5,-1021 654.5,-1103 "/>
<path fill="none" stroke="black" d="M654.5,-1103C654.5,-1109 648.5,-1115 642.5,-1115"/>
<polyline fill="none" stroke="black" points="642.5,-1115 501.5,-1115 "/>
<path fill="none" stroke="black" d="M501.5,-1115C495.5,-1115 489.5,-1109 489.5,-1103"/>
<polyline fill="none" stroke="black" points="489.5,-1103 489.5,-1021 "/>
<path fill="none" stroke="black" d="M489.5,-1021C489.5,-1015 495.5,-1009 501.5,-1009"/>
<text text-anchor="middle" x="572" y="-1098.4" font-family="Times Roman,serif" font-size="14.00">Plan</text>
<polyline fill="none" stroke="black" points="489.5,-1089 654.5,-1089 "/>
<text text-anchor="start" x="497.5" y="-1072.4" font-family="Times Roman,serif" font-size="14.00">id :integer</text>
<text text-anchor="start" x="497.5" y="-1054.4" font-family="Times Roman,serif" font-size="14.00">name :string</text>
<text text-anchor="start" x="497.5" y="-1036.4" font-family="Times Roman,serif" font-size="14.00">created_at :datetime</text>
<text text-anchor="start" x="497.5" y="-1018.4" font-family="Times Roman,serif" font-size="14.00">updated_at :datetime</text>
</g>
<!-- Career -->
<g id="node11" class="node"><title>Career</title>
<polyline fill="none" stroke="black" points="501.5,-694 642.5,-694 "/>
<path fill="none" stroke="black" d="M642.5,-694C648.5,-694 654.5,-700 654.5,-706"/>
<polyline fill="none" stroke="black" points="654.5,-706 654.5,-824 "/>
<path fill="none" stroke="black" d="M654.5,-824C654.5,-830 648.5,-836 642.5,-836"/>
<polyline fill="none" stroke="black" points="642.5,-836 501.5,-836 "/>
<path fill="none" stroke="black" d="M501.5,-836C495.5,-836 489.5,-830 489.5,-824"/>
<polyline fill="none" stroke="black" points="489.5,-824 489.5,-706 "/>
<path fill="none" stroke="black" d="M489.5,-706C489.5,-700 495.5,-694 501.5,-694"/>
<text text-anchor="middle" x="572" y="-819.4" font-family="Times Roman,serif" font-size="14.00">Career</text>
<polyline fill="none" stroke="black" points="489.5,-810 654.5,-810 "/>
<text text-anchor="start" x="497.5" y="-793.4" font-family="Times Roman,serif" font-size="14.00">id :integer</text>
<text text-anchor="start" x="497.5" y="-775.4" font-family="Times Roman,serif" font-size="14.00">name :string</text>
<text text-anchor="start" x="497.5" y="-757.4" font-family="Times Roman,serif" font-size="14.00">short_name :string</text>
<text text-anchor="start" x="497.5" y="-739.4" font-family="Times Roman,serif" font-size="14.00">plan_id :integer</text>
<text text-anchor="start" x="497.5" y="-721.4" font-family="Times Roman,serif" font-size="14.00">created_at :datetime</text>
<text text-anchor="start" x="497.5" y="-703.4" font-family="Times Roman,serif" font-size="14.00">updated_at :datetime</text>
</g>
<!-- Plan&#45;&gt;Career -->
<g id="edge8" class="edge"><title>Plan&#45;&gt;Career</title>
<path fill="none" stroke="#448f8d" d="M572,-1000.79C572,-956.097 572,-895.051 572,-846.272"/>
<ellipse fill="none" stroke="#448f8d" cx="572" cy="-1004.9" rx="4" ry="4"/>
<polygon fill="#448f8d" stroke="#448f8d" points="572,-846.059 576.5,-836.059 572,-841.059 572,-836.059 572,-836.059 572,-836.059 572,-841.059 567.5,-836.059 572,-846.059 572,-846.059"/>
</g>
<!-- Calendar -->
<g id="node10" class="node"><title>Calendar</title>
<polyline fill="none" stroke="black" points="319.5,-478 460.5,-478 "/>
<path fill="none" stroke="black" d="M460.5,-478C466.5,-478 472.5,-484 472.5,-490"/>
<polyline fill="none" stroke="black" points="472.5,-490 472.5,-590 "/>
<path fill="none" stroke="black" d="M472.5,-590C472.5,-596 466.5,-602 460.5,-602"/>
<polyline fill="none" stroke="black" points="460.5,-602 319.5,-602 "/>
<path fill="none" stroke="black" d="M319.5,-602C313.5,-602 307.5,-596 307.5,-590"/>
<polyline fill="none" stroke="black" points="307.5,-590 307.5,-490 "/>
<path fill="none" stroke="black" d="M307.5,-490C307.5,-484 313.5,-478 319.5,-478"/>
<text text-anchor="middle" x="390" y="-585.4" font-family="Times Roman,serif" font-size="14.00">Calendar</text>
<polyline fill="none" stroke="black" points="307.5,-576 472.5,-576 "/>
<text text-anchor="start" x="315.5" y="-559.4" font-family="Times Roman,serif" font-size="14.00">id :integer</text>
<text text-anchor="start" x="315.5" y="-541.4" font-family="Times Roman,serif" font-size="14.00">name :string</text>
<text text-anchor="start" x="315.5" y="-523.4" font-family="Times Roman,serif" font-size="14.00">career_id :integer</text>
<text text-anchor="start" x="315.5" y="-505.4" font-family="Times Roman,serif" font-size="14.00">created_at :datetime</text>
<text text-anchor="start" x="315.5" y="-487.4" font-family="Times Roman,serif" font-size="14.00">updated_at :datetime</text>
</g>
<!-- Calendar&#45;&gt;Event -->
<g id="edge10" class="edge"><title>Calendar&#45;&gt;Event</title>
<path fill="none" stroke="#15c870" d="M428.002,-470.469C444.484,-440.313 464.526,-403.643 484.355,-367.362"/>
<ellipse fill="none" stroke="#15c870" cx="425.938" cy="-474.246" rx="4.00002" ry="4.00002"/>
<polygon fill="#15c870" stroke="#15c870" points="484.593,-366.925 493.338,-360.308 486.991,-362.538 489.389,-358.15 489.389,-358.15 489.389,-358.15 486.991,-362.538 485.441,-355.992 484.593,-366.925 484.593,-366.925"/>
</g>
<!-- Matter -->
<g id="node12" class="node"><title>Matter</title>
<polyline fill="none" stroke="black" points="501.5,-451 642.5,-451 "/>
<path fill="none" stroke="black" d="M642.5,-451C648.5,-451 654.5,-457 654.5,-463"/>
<polyline fill="none" stroke="black" points="654.5,-463 654.5,-617 "/>
<path fill="none" stroke="black" d="M654.5,-617C654.5,-623 648.5,-629 642.5,-629"/>
<polyline fill="none" stroke="black" points="642.5,-629 501.5,-629 "/>
<path fill="none" stroke="black" d="M501.5,-629C495.5,-629 489.5,-623 489.5,-617"/>
<polyline fill="none" stroke="black" points="489.5,-617 489.5,-463 "/>
<path fill="none" stroke="black" d="M489.5,-463C489.5,-457 495.5,-451 501.5,-451"/>
<text text-anchor="middle" x="572" y="-612.4" font-family="Times Roman,serif" font-size="14.00">Matter</text>
<polyline fill="none" stroke="black" points="489.5,-603 654.5,-603 "/>
<text text-anchor="start" x="497.5" y="-586.4" font-family="Times Roman,serif" font-size="14.00">id :integer</text>
<text text-anchor="start" x="497.5" y="-568.4" font-family="Times Roman,serif" font-size="14.00">name :string</text>
<text text-anchor="start" x="497.5" y="-550.4" font-family="Times Roman,serif" font-size="14.00">short_name :string</text>
<text text-anchor="start" x="497.5" y="-532.4" font-family="Times Roman,serif" font-size="14.00">career_id :integer</text>
<text text-anchor="start" x="497.5" y="-514.4" font-family="Times Roman,serif" font-size="14.00">year :integer</text>
<text text-anchor="start" x="497.5" y="-496.4" font-family="Times Roman,serif" font-size="14.00">created_at :datetime</text>
<text text-anchor="start" x="497.5" y="-478.4" font-family="Times Roman,serif" font-size="14.00">updated_at :datetime</text>
<text text-anchor="start" x="497.5" y="-460.4" font-family="Times Roman,serif" font-size="14.00">responsible :string</text>
</g>
<!-- Career&#45;&gt;Matter -->
<g id="edge12" class="edge"><title>Career&#45;&gt;Matter</title>
<path fill="none" stroke="#c38c4c" d="M572,-685.548C572,-670.627 572,-654.854 572,-639.415"/>
<ellipse fill="none" stroke="#c38c4c" cx="572" cy="-689.809" rx="4" ry="4"/>
<polygon fill="#c38c4c" stroke="#c38c4c" points="572,-639.33 576.5,-629.33 572,-634.33 572,-629.33 572,-629.33 572,-629.33 572,-634.33 567.5,-629.33 572,-639.33 572,-639.33"/>
</g>
<!-- Matter&#45;&gt;Event -->
<g id="edge14" class="edge"><title>Matter&#45;&gt;Event</title>
<path fill="none" stroke="#edc79a" d="M572,-442.543C572,-436.332 572,-429.966 572,-423.488"/>
<ellipse fill="none" stroke="#edc79a" cx="572" cy="-446.762" rx="4" ry="4"/>
<polygon fill="#edc79a" stroke="#edc79a" points="572,-423.224 576.5,-413.224 572,-418.224 572,-413.224 572,-413.224 572,-413.224 572,-418.224 567.5,-413.224 572,-423.224 572,-423.224"/>
</g>
</g>
</svg>
